<?xml version="1.0" encoding="UTF-8"?>
<!-- Generator: Adobe Illustrator 19.2.0, SVG Export Plug-In . SVG Version: 6.00 Build 0)  -->
<svg version="1.1" id="Layer_1" xmlns="http://www.w3.org/2000/svg" xmlns:xlink="http://www.w3.org/1999/xlink" x="0px" y="0px" viewBox="0 0 960 960" style="enable-background:new 0 0 960 960;" xml:space="preserve">
<style type="text/css">
	.st0{fill:#DB3236;}
	.st1{fill:#33B98C;}
	.st2{fill:#FFFFFF;}
</style>
<g>
	<path class="st0" d="M759,258.3c-56.8-55.9-148.2-55.2-204.1,1.6l-75.1,76.3l-76.3-75.1c-56.8-55.9-148.2-55.2-204.1,1.6   S144.2,411,201,466.9l280.6,276.2l1.4-1.5l1.5,1.4l276.2-280.6C816.6,405.6,815.8,314.3,759,258.3z"/>
	<circle class="st1" cx="674.1" cy="566.4" r="103.1"/>
	<polygon class="st2" points="692.6,550 692.6,507.7 656.5,507.7 656.5,550 615.9,550 615.9,585.3 656.5,585.3 656.5,628.1    692.6,628.1 692.6,585.3 733.2,585.3 733.2,550  "/>
</g>
</svg>